Coordinates
version=1
nRows=22
nColumns=24
inDegrees=yes

Units are S.I. units (second, meters, Newtons, ...)
Angles are in degrees.

endheader
time	pelvis_tilt	pelvis_list	pelvis_rotation	pelvis_tx	pelvis_ty	pelvis_tz	hip_flexion_r	hip_adduction_r	hip_rotation_r	knee_angle_r	ankle_angle_r	subtalar_angle_r	mtp_angle_r	hip_flexion_l	hip_adduction_l	hip_rotation_l	knee_angle_l	ankle_angle_l	subtalar_angle_l	mtp_angle_l	lumbar_extension	lumbar_bending	lumbar_rotation
      0.98416667	     -5.43715868	     -1.86264957	     -2.41162508	     -0.05835337	      1.03038652	      0.26819993	     -7.71163676	      4.01084233	     -1.40204228	    -16.92783933	     20.53158549	      3.29216939	      2.44760798	     31.12933381	     -2.15084697	      0.25429633	     -9.24481784	      6.84592687	      7.09605596	      3.33596941	     -9.97268449	      3.93629071	      4.75964364
      0.98833333	     -5.39159753	     -1.83583671	     -2.46618648	     -0.05230821	      1.02973370	      0.26807937	     -7.81100098	      3.92205812	     -1.37335521	    -17.56298532	     20.39069808	      3.33182225	      2.49486327	     31.22899413	     -2.06309406	      0.31723432	    -10.12543621	      6.54947532	      7.04656065	      3.35418766	     -9.99887495	      3.80840499	      4.72995323
      0.99250000	     -5.36023739	     -1.79682089	     -2.52208712	     -0.04623525	      1.02910405	      0.26796267	     -7.86651360	      3.81550443	     -1.37146482	    -18.25565500	     20.23083906	      3.41161092	      2.55831072	     31.33898166	     -1.96713035	      0.38416493	    -11.01919999	      6.21973186	      6.96190898	      3.37586685	     -9.99338490	      3.67029443	      4.68907327
      0.99666667	     -5.38320223	     -1.74071088	     -2.58102531	     -0.04006400	      1.02843891	      0.26778782	     -7.81756322	      3.66905751	     -1.50475339	    -19.05287056	     20.11922359	      3.70177494	      2.75056945	     31.49217856	     -1.84870395	      0.46950244	    -11.90374586	      5.79460329	      6.72016481	      3.43841647	     -9.79186089	      3.57068538	      4.61269037
      1.00083333	     -5.34282056	     -1.70275918	     -2.61000796	     -0.03401689	      1.02792282	      0.26762852	     -7.86043880	      3.57233164	     -1.44231630	    -19.77604598	     19.88441694	      3.76746649	      2.81671051	     31.59295838	     -1.74224894	      0.62955937	    -12.82921954	      5.56430220	      6.61486309	      3.45695311	     -9.88526661	      3.36417245	      4.56522588
      1.00500000	     -5.41945324	     -1.63310539	     -2.63669800	     -0.02783021	      1.02724285	      0.26736978	     -7.70597756	      3.40301703	     -1.64793276	    -20.65849575	     19.72196990	      4.23127696	      3.22776293	     31.79080570	     -1.58179403	      0.91613334	    -13.71133437	      5.08117477	      6.03778476	      3.55540226	     -9.64820243	      3.19523230	      4.42889908
      1.00916667	     -5.37637379	     -1.55814810	     -2.67008644	     -0.02173072	      1.02683964	      0.26708580	     -7.64871718	      3.22319169	     -1.78609236	    -21.59227807	     19.46785969	      4.49157388	      4.03974449	     31.83636479	     -1.40825123	      1.28528278	    -14.55529308	      4.74461224	      5.47838656	      3.72605793	     -9.62971270	      3.05883915	      4.29541310
      1.01333333	     -5.29322356	     -1.48932663	     -2.69127320	     -0.01563304	      1.02658281	      0.26680439	     -7.66030570	      3.07286498	     -1.78264247	    -22.44871755	     19.07254660	      4.46092942	      4.11958504	     31.88174065	     -1.27735601	      1.36174780	    -15.49728354	      4.53777173	      5.39355859	      3.73753417	     -9.73909615	      2.86748489	      4.26293457
      1.01750000	     -5.21962312	     -1.39860728	     -2.73074635	     -0.00949387	      1.02637183	      0.26649444	     -7.61387969	      2.87847969	     -1.83551082	    -23.39913421	     18.62754348	      4.50670101	      4.21291455	     31.91118475	     -1.12765433	      1.46929189	    -16.39906508	      4.31674253	      5.23901718	      3.74626833	     -9.79414705	      2.67627846	      4.21852701
      1.02166667	     -5.27423342	     -1.27111526	     -2.75589921	     -0.00320708	      1.02594925	      0.26602673	     -7.37233519	      2.59866180	     -2.12800347	    -24.47615434	     18.25300209	      5.11254821	      4.76383586	     32.02980080	     -0.89332144	      1.83671642	    -17.21771959	      3.93357029	      4.53460621	      3.78386200	     -9.55085213	      2.42278337	      4.09232526
      1.02583333	     -5.16166794	     -1.17627187	     -2.78709616	      0.00287272	      1.02590996	      0.26559569	     -7.30205869	      2.38277444	     -2.18847522	    -25.53659196	     17.78932765	      5.10133321	      4.87017757	     32.00925248	     -0.73318402	      1.93794088	    -18.11373827	      3.84568415	      4.40127579	      3.78906859	     -9.70516532	      2.27585713	      4.04964164
      1.03000000	     -5.13820968	     -1.00933944	     -2.82008075	      0.00916869	      1.02572548	      0.26504648	     -7.08306360	      2.02924089	     -2.50703526	    -26.71550102	     17.30799877	      5.73038506	      5.58049947	     32.00985787	     -0.46073445	      2.25563793	    -18.88040954	      3.59183262	      3.79874465	      3.79768809	     -9.57732979	      1.98616840	      3.91570111
      1.03416667	     -5.01924670	     -0.89370487	     -2.83255900	      0.01531312	      1.02578392	      0.26448887	     -6.96933865	      1.76107744	     -2.68080969	    -27.85104197	     16.70171465	      5.79568366	      5.85217281	     31.96477873	     -0.27612911	      2.26474653	    -19.75973330	      3.56534842	      3.58907759	      3.79625314	     -9.67792881	      1.79210938	      3.86084814
      1.03833333	     -4.95187848	     -0.72088073	     -2.85701700	      0.02142769	      1.02572305	      0.26375535	     -6.69426995	      1.35974131	     -3.05938317	    -29.21618966	     16.37252138	      6.49967600	      7.58878738	     31.91002004	      0.02192754	      2.58462474	    -20.49746658	      3.41119325	      2.98032187	      3.74530067	     -9.69837563	      1.62821966	      3.72306167
      1.04250000	     -4.85110922	     -0.55930869	     -2.92629419	      0.02776051	      1.02591459	      0.26331443	     -6.52599289	      1.03408118	     -3.10889228	    -30.38832515	     15.43341980	      6.54763292	      8.09384530	     31.78689747	      0.22203484	      2.59039237	    -21.20653554	      3.45494153	      3.00514553	      3.72285847	     -9.69791214	      1.28358290	      3.66977533
      1.04666667	     -4.77900068	     -0.39256146	     -2.93544148	      0.03378876	      1.02592026	      0.26253972	     -6.19716384	      0.62025332	     -3.51574902	    -31.83636568	     15.03966807	      7.23649491	     10.17668953	     31.73838779	      0.49157296	      2.68363470	    -21.96689330	      3.44897637	      2.61721366	      3.58132376	     -9.75846092	      1.10948092	      3.59022115
      1.05083333	     -4.65658571	     -0.25938824	     -2.97966513	      0.03996427	      1.02622637	      0.26203663	     -5.98663716	      0.31752022	     -3.57770901	    -33.07793913	     13.87947707	      7.00441319	     19.21553908	     31.58990554	      0.66080145	      2.60681965	    -22.66245098	      3.64953347	      2.81496827	      2.78882998	     -9.85165551	      0.81235915	      3.54974259
      1.05500000	     -4.53135196	     -0.11196886	     -3.02532600	      0.04602750	      1.02653172	      0.26144160	     -5.71167134	     -0.03437836	     -3.72601558	    -34.46271699	     13.04877536	      7.14728898	     19.22232451	     31.41617346	      0.86901871	      2.59687425	    -23.30554128	      3.79453316	      2.63272606	      2.78684218	     -9.95937796	      0.56797377	      3.48185574
      1.05916667	     -4.42583719	      0.04883987	     -3.06890627	      0.05206479	      1.02682959	      0.26084450	     -5.37857935	     -0.41123734	     -3.89991805	    -35.90632929	     12.22155874	      7.35191259	     19.23965471	     31.23998619	      1.09457442	      2.59595469	    -23.89774469	      3.95608289	      2.49997308	      2.78244223	    -10.04356337	      0.32015111	      3.41355255
      1.06333333	     -4.31748707	      0.22283332	     -3.11685476	      0.05809424	      1.02716987	      0.26027098	     -5.02067682	     -0.81072738	     -4.07376610	    -37.38378237	     11.37456503	      7.59850478	     19.26757574	     31.03265558	      1.33176923	      2.57782001	    -24.43491973	      4.15529937	      2.36837954	      2.77423791	    -10.11111073	      0.04982311	      3.33801817
      1.06750000	     -4.21509560	      0.39545596	     -3.16791723	      0.06405821	      1.02754497	      0.25971023	     -4.62413167	     -1.21009185	     -4.23033220	    -38.89719567	     10.51621289	      7.82033101	     19.29886355	     30.81151242	      1.56743440	      2.55623611	    -24.92745715	      4.37741225	      2.24990687	      2.76364316	    -10.18398557	     -0.20914014	      3.26350274
      1.07166667	     -4.11571069	      0.56760113	     -3.22172561	      0.06997252	      1.02795045	      0.25919367	     -4.19837921	     -1.60748898	     -4.36595125	    -40.43179813	      9.63543082	      8.01281181	     19.33123171	     30.57413436	      1.79999836	      2.52703621	    -25.37798150	      4.62889057	      2.13412011	      2.75036309	    -10.25418485	     -0.47169093	      3.18750257
